<?xml version="1.0" encoding="UTF-8"?>
<svg viewBox="0 0 60 60" xmlns="http://www.w3.org/2000/svg">
 <path d="m30.094 2.9375c-15.091 0-27.344 12.253-27.344 27.344s12.253 27.344 27.344 27.344 27.344-12.253 27.344-27.344-12.253-27.344-27.344-27.344zm0 5.9688c1.326 0 2.4351 0.46631 3.375 1.4062s1.4062 2.0635 1.4062 3.4062c0 1.3931-0.4663 2.5768-1.4062 3.5s-2.049 1.375-3.375 1.375c-1.3092 0-2.435-0.46631-3.375-1.4062s-1.4375-2.1092-1.4375-3.4688c0-1.3092 0.49756-2.4183 1.4375-3.375s2.0658-1.4375 3.375-1.4375zm0 14.469c1.1917 0 2.1365 0.41308 2.875 1.2188 0.7553 0.78888 1.125 1.777 1.125 2.9688v19.906c0 1.1917-0.3697 2.1776-1.125 3-0.73853 0.80567-1.6833 1.2188-2.875 1.2188-1.1749 0-2.151-0.41308-2.9062-1.2188-0.73853-0.82245-1.125-1.8083-1.125-3v-19.906c0-1.1917 0.38647-2.1799 1.125-2.9688 0.7553-0.80567 1.7313-1.2188 2.9062-1.2188z" fill="#b3b3b3" fill-rule="evenodd" stroke="#333" stroke-width="3.125"/>
</svg>
