<?xml version="1.0" encoding="UTF-8" standalone="no"?>
<!DOCTYPE svg PUBLIC "-//W3C//DTD SVG 1.1//EN" "http://www.w3.org/Graphics/SVG/1.1/DTD/svg11.dtd">
<svg width="100%" height="100%" viewBox="0 0 4000 4000" version="1.1" xmlns="http://www.w3.org/2000/svg" xmlns:xlink="http://www.w3.org/1999/xlink" xml:space="preserve" xmlns:serif="http://www.serif.com/" style="fill-rule:evenodd;clip-rule:evenodd;stroke-linejoin:round;stroke-miterlimit:2;">
    <g transform="matrix(1.20722,0,0,1.20722,69.7467,67.4426)">
        <g transform="matrix(1.99069,0,0,1.99069,-2489.81,-1077.1)">
            <circle cx="2063" cy="1342" r="589" style="fill:white;"/>
        </g>
        <g transform="matrix(1.11842,0,0,1.11842,-183.083,-182.927)">
            <path d="M1599.61,190.633C2376.52,190.633 3007.28,821.385 3007.28,1598.3C3007.28,2375.21 2376.52,3005.96 1599.61,3005.96C822.703,3005.96 191.95,2375.21 191.95,1598.3C191.95,821.385 822.703,190.633 1599.61,190.633ZM1609.58,778.582C2066.08,778.582 2436.71,1149.21 2436.71,1605.71C2436.71,2062.22 2066.08,2432.84 1609.58,2432.84C1153.07,2432.84 782.445,2062.22 782.445,1605.71C782.445,1149.21 1153.07,778.582 1609.58,778.582Z" style="fill:rgb(0,41,70);"/>
            <path d="M1599.61,158.785C805.126,158.785 160.102,803.808 160.102,1598.3C160.102,2392.79 805.126,3037.81 1599.61,3037.81C2394.1,3037.81 3039.13,2392.79 3039.13,1598.3C3039.13,803.808 2394.1,158.785 1599.61,158.785ZM1599.61,190.633C2376.52,190.633 3007.28,821.385 3007.28,1598.3C3007.28,2375.21 2376.52,3005.96 1599.61,3005.96C822.703,3005.96 191.95,2375.21 191.95,1598.3C191.95,821.385 822.703,190.633 1599.61,190.633ZM1609.58,778.582C2066.08,778.582 2436.71,1149.21 2436.71,1605.71C2436.71,2062.22 2066.08,2432.84 1609.58,2432.84C1153.07,2432.84 782.445,2062.22 782.445,1605.71C782.445,1149.21 1153.07,778.582 1609.58,778.582ZM1609.58,810.43C2048.5,810.43 2404.86,1166.79 2404.86,1605.71C2404.86,2044.64 2048.5,2400.99 1609.58,2400.99C1170.65,2400.99 814.293,2044.64 814.293,1605.71C814.293,1166.79 1170.65,810.43 1609.58,810.43Z" style="fill:white;"/>
        </g>
        <g transform="matrix(0.557385,0,0,0.557385,748.194,706.192)">
            <path d="M1361.38,508.877C1423.22,498.144 1486.78,492.552 1551.63,492.552C1567.7,492.552 1583.69,492.895 1599.59,493.575C1600.87,487.176 1601.76,480.865 1602.17,474.684C1607.23,399.485 1526.68,377.696 1530.91,314.847C1531.97,299.128 1538.67,286.788 1548.66,277.152C1569.39,255.678 1606.66,244.684 1649.53,245.189C1654.96,245.084 1659.8,245.201 1663.82,245.471C1668.15,245.762 1673.39,246.335 1679.23,247.237C1721.99,252.49 1754.21,266.832 1771.26,288.444C1780.73,299.274 1786.34,312.551 1785.25,328.71C1785.11,330.77 1784.87,332.811 1784.53,334.835C1783.76,341.736 1781.55,348.316 1778.1,354.473C1754.99,402.509 1684.71,440.038 1682.01,480.219C1681.65,485.639 1682.27,492.488 1683.67,500.365C1735.12,506.494 1785.49,516.159 1834.53,529.109C1846.46,520.97 1861.13,511.817 1878.72,501.396C1929.6,471.251 2017.08,300.898 2000.47,269.112C1948.11,168.906 1966.92,118.707 2097.78,170.443C2227.64,221.785 2208.25,267.904 2101.28,307.942C2067.35,320.638 1992.59,462.105 2025.24,561.061C2030.81,577.943 2035.24,592.63 2038.56,605.337C2101.91,636.458 2161.85,673.463 2217.67,715.635C2266.33,682.302 2337.07,604.635 2334.45,582.99C2324.5,500.517 2350.36,467.421 2426.63,528.95C2502.31,590.01 2477.1,620.03 2393.46,629.642C2370.55,632.274 2301.91,699.276 2281.57,767.73C2287.01,772.517 2292.41,777.357 2297.78,782.267C2306.26,744.55 2308.49,707.047 2342.2,680.614C2357.11,668.926 2373.07,664.411 2388.98,664.668C2423.33,664.01 2460.26,684.852 2490.9,719.307C2494.93,723.533 2498.34,727.476 2501.01,730.884C2503.89,734.554 2507.17,739.17 2510.6,744.53C2536.88,782.675 2547.35,819.701 2540.27,850.466C2537.4,866.615 2529.52,881.654 2514.2,893.669C2512.25,895.197 2510.24,896.626 2508.18,897.965C2501.41,902.859 2493.88,906.356 2485.83,908.524C2466.54,914.935 2444.68,916.603 2422.65,916.911C2453.47,956.201 2481.69,997.626 2507.04,1040.89C2513.92,1040.95 2521.23,1041.07 2528.97,1041.25C2589.39,1042.68 2776.88,950.08 2786.51,916.228C2816.86,809.51 2866.74,778.715 2931,886.063C2994.78,992.595 2947.32,1019.82 2836.73,998.1C2801.66,991.209 2644.34,1067.05 2599.69,1162.84C2593.67,1175.77 2588.06,1187.24 2582.81,1197.33C2618.7,1289.28 2642.63,1387.19 2652.7,1489.14C2683.03,1500.57 2714.23,1508.4 2742.46,1508.07C2829.61,1507.03 2847.38,1412.19 2920.22,1411.33C2938.44,1411.11 2953.27,1417.71 2965.29,1428.34C2991.94,1450.27 3008.02,1492.24 3011.35,1541.71C3011.97,1547.96 3012.27,1553.56 3012.33,1558.22C3012.39,1563.23 3012.21,1569.32 3011.7,1576.14C3009.55,1625.91 2995.95,1664.37 2972.59,1685.99C2960.98,1697.9 2946.18,1705.58 2927.45,1705.8C2925.07,1705.83 2922.7,1705.73 2920.35,1705.52C2912.31,1705.27 2904.52,1703.33 2897.1,1699.9C2839.61,1677.65 2789.93,1600.06 2743.37,1600.61C2724.71,1600.83 2692.31,1612.3 2657.74,1627.29C2654.88,1741.2 2634.76,1850.86 2599.9,1953.8C2654.35,1983.86 2726.26,2009.82 2743.36,2000.54C2824.1,1956.72 2867.45,1970.41 2832.47,2075.2C2797.75,2179.19 2757.78,2164.94 2717.27,2081.24C2708.03,2062.15 2641.53,2027.93 2574.79,2020.69C2536.32,2113.86 2485.48,2200.64 2424.29,2279.01C2451.63,2308.46 2479.32,2331.64 2491.41,2331.05C2574.39,2327 2605.55,2355.16 2538.75,2426.85C2472.45,2497.99 2444.3,2470.7 2440.67,2386.59C2440.12,2373.77 2420.69,2345.39 2392.05,2318.42C2372,2341.82 2350.98,2364.38 2329.09,2386.01C2364.93,2391.93 2400.16,2394.56 2423.49,2425.2C2434.52,2439.7 2438.07,2455.55 2436.69,2471.54C2434.97,2506 2410.86,2543.93 2373.12,2576.1C2368.47,2580.32 2364.16,2583.9 2360.45,2586.72C2358.64,2588.1 2356.62,2589.57 2354.42,2591.1C2380.53,2641.84 2414.76,2689.52 2432.59,2691.34C2532.6,2701.54 2560.65,2740.08 2458.18,2811.87C2356.49,2883.11 2331.76,2846.14 2354.42,2747.14C2358.96,2727.34 2333.4,2670.36 2291.45,2624.91C2270.66,2632.06 2251.27,2634.19 2234.17,2630.99C2217.69,2628.75 2202.71,2621.45 2191.37,2606.55C2189.92,2604.65 2188.59,2602.7 2187.35,2600.68C2182.76,2594.08 2179.68,2586.66 2178,2578.66C2176.2,2572.13 2174.99,2565.28 2174.23,2558.2C2155.33,2552.24 2141.39,2546.68 2131.76,2541.18C2076.95,2575.03 2018.95,2604.24 1958.31,2628.24C1954.27,2641.17 1949.08,2656.09 1942.74,2673.21C1921.81,2729.74 1960.78,2922.39 1993.94,2937.44C2098.48,2984.93 2115.44,3037.27 1979.85,3078.59C1845.3,3119.6 1831.37,3070.17 1890.14,2970.1C1908.78,2938.37 1878.08,2777.05 1789.82,2718.08C1773.05,2706.86 1759.1,2696.95 1747.79,2688.12C1707.28,2695.38 1666.02,2700.43 1624.12,2703.15C1618.79,2715.2 1606.47,2732.31 1586.48,2756.7C1559.65,2789.42 1542.16,2925.65 1560.98,2943.05C1620.29,2997.91 1619.81,3036.36 1519.58,3033.31C1420.11,3030.29 1421.97,2994.46 1484.01,2941.4C1503.69,2924.58 1519.63,2810.93 1473.83,2752.12C1455.64,2728.76 1444.46,2711.93 1439.46,2699.86C1408.66,2696.76 1378.22,2692.38 1348.27,2686.81C1337.77,2699.22 1323.02,2714.3 1303.64,2732.81C1263.46,2771.2 1212.34,2949.3 1231.76,2976.14C1293.01,3060.74 1284.07,3111.87 1161.14,3088.34C1039.14,3064.99 1049.2,3017.61 1137.22,2958.98C1150.51,2950.12 1167.52,2911.86 1176.97,2864.78C1160.81,2869.55 1142.2,2869.2 1123.31,2864C1119.61,2863.15 1116.36,2862.2 1113.72,2861.25C1110.87,2860.24 1107.48,2858.81 1103.78,2856.98C1076.29,2844.81 1058.37,2826.32 1052.69,2803.95C1049.21,2792.58 1049.01,2779.7 1054.12,2765.4C1054.76,2763.58 1055.48,2761.81 1056.25,2760.05C1058.64,2753.99 1061.92,2748.46 1065.93,2743.53C1087.83,2713.64 1126.75,2694.09 1149.5,2670.62C1140.64,2650.46 1135.5,2635.16 1133.84,2623.78C1084.58,2603.65 1037.08,2580.07 991.671,2553.35C981.26,2563.13 960.951,2574.77 928.444,2590.64C888.273,2610.25 798.937,2734.77 804.939,2760.26C823.854,2840.63 802.328,2877.8 721.097,2829.19C640.484,2780.95 661.715,2746.95 742.191,2723.6C767.71,2716.2 843.349,2612.94 837.79,2534.89C834.238,2485.01 836.402,2459.82 845.503,2450.64C788.185,2403.05 735.741,2349.79 689.009,2291.69C680.727,2296.29 673.082,2301.38 666.335,2307.01C612.056,2352.28 649.991,2421.68 604.625,2459.51C593.279,2468.98 580.531,2472.38 567.467,2471.77C539.352,2471.47 507.507,2453.01 479.794,2423.26C476.173,2419.61 473.08,2416.2 470.634,2413.27C467.999,2410.11 464.96,2406.15 461.752,2401.56C437.334,2368.81 425.967,2337.39 429.463,2311.68C430.611,2298.16 435.94,2285.71 447.599,2275.99C449.082,2274.75 450.62,2273.6 452.212,2272.52C457.398,2268.57 463.309,2265.81 469.752,2264.19C517.423,2248.92 588.844,2272.82 617.847,2248.63C623.965,2243.53 630.865,2234.49 638.065,2223.11C616.696,2191.91 596.883,2159.55 578.755,2126.19C568.223,2135.88 539.342,2131 480.895,2112.47C431.26,2096.74 268.944,2139.73 258.117,2169.47C223.981,2263.22 180.269,2280.49 136.552,2163.62C93.167,2047.63 134.575,2033.16 223.778,2080.04C252.064,2094.91 388.102,2060.6 433.075,1980.58C458.263,1935.77 475.332,1913.01 488.776,1907.4C467.959,1835.62 454.224,1760.87 448.374,1683.92C389.145,1675.01 294.574,1679.84 281.772,1696C230.195,1761.12 188.479,1766.04 178.508,1668.56C168.614,1571.82 207.684,1568.6 273.377,1621.24C290.898,1635.29 382.275,1637.18 445.18,1606.13C445.166,1603.78 445.158,1601.4 445.158,1599.02C445.158,1540.46 449.718,1482.95 458.512,1426.77C448.654,1416.5 437.279,1403.52 424.035,1387.64C412.738,1374.09 387.393,1358.53 357.213,1344.18C314.165,1352.88 280.191,1383.76 235.975,1368.22C220.654,1362.84 210.083,1353.24 203.013,1341.39C195.515,1329.79 191.144,1315.54 189.729,1299.7C189.047,1299.99 188.425,1300.32 187.862,1300.67C100.063,1356.2 50.03,1344.06 81.419,1223.29C112.261,1104.62 157.905,1116.22 209.529,1205.06C225.028,1172.05 245.785,1149.68 269.476,1140.89C282.567,1135.27 297.118,1133.88 312.861,1139.41C314.864,1140.11 316.821,1140.91 318.739,1141.79C325.399,1144.43 331.383,1148.3 336.637,1153.2C370.913,1181.55 390.372,1236.84 417.778,1263.52C432.933,1261.55 447.489,1257.93 460.826,1252.26C478.661,1244.68 493.858,1238.76 506.727,1234.44C528.215,1172.91 554.99,1113.86 586.507,1057.83C550.691,1032.27 514.255,1012.66 501.654,1016.14C421.576,1038.24 385.004,1017.58 434.519,933.019C483.657,849.103 517.09,869.574 539.021,950.854C542.734,964.62 573.376,992.016 612.951,1013.28C649.956,954.136 692.397,898.731 739.569,847.776C738.605,841.619 737.645,835.098 736.679,828.183C734.71,814.086 725.668,794.044 712.771,772.07C698.058,770.083 684.279,765.286 672.218,753.692C661.452,743.344 656.578,730.96 655.674,717.838C654.867,710.165 655.376,702.073 657.083,693.733C627.023,657.617 596.604,629.508 582.036,629.62C478.155,630.415 442.076,593.688 532.502,507.699C622.241,422.365 654.639,457.848 650.822,562.95C650.342,576.148 664.788,603.163 688.358,631.9C690.158,629.63 692.024,627.372 693.953,625.129C697.184,621.126 700.223,617.679 702.869,614.926C705.718,611.962 709.326,608.509 713.538,604.822C743.414,576.985 773.469,562.332 799.554,563.131C813.189,562.861 826.241,566.883 837.304,577.516C838.711,578.869 840.041,580.285 841.299,581.764C845.847,586.533 849.284,592.152 851.652,598.421C868.528,635.818 861.413,691.583 872.89,725.381C935.908,676.34 1004.35,633.963 1077.17,599.306C1056.94,553.449 1030.11,509.357 1015.72,505.911C934.935,486.56 912.903,450.796 997.116,400.695C1080.69,350.975 1100.07,385.055 1079.99,466.811C1075.99,483.061 1095.4,533.668 1128.17,576.606C1157.69,564.346 1187.87,553.33 1218.62,543.628C1220.59,539.923 1222.66,536.084 1224.83,532.102C1250.02,485.95 1239.51,316.004 1212.38,299.256C1126.84,246.451 1118.41,199.539 1241.93,179.639C1364.51,159.891 1370.64,203.95 1307.06,283.145C1287.15,307.949 1293.85,446.867 1361.38,508.877Z" style="fill:rgb(230,0,0);"/>
        </g>
        <g transform="matrix(280.593,-413.845,413.845,280.593,638.301,1167.63)">
            <g>
                <path d="M0.102,-0.138C0.076,-0.173 0.055,-0.211 0.041,-0.251C0.027,-0.291 0.02,-0.33 0.02,-0.368C0.02,-0.407 0.027,-0.445 0.042,-0.484C0.056,-0.523 0.077,-0.56 0.105,-0.594C0.167,-0.67 0.248,-0.715 0.349,-0.729C0.377,-0.733 0.403,-0.735 0.428,-0.735C0.465,-0.735 0.497,-0.731 0.526,-0.723C0.555,-0.715 0.578,-0.704 0.597,-0.691C0.616,-0.678 0.63,-0.663 0.639,-0.647C0.648,-0.632 0.653,-0.615 0.653,-0.597C0.653,-0.573 0.646,-0.553 0.633,-0.537C0.622,-0.523 0.612,-0.514 0.601,-0.508C0.591,-0.503 0.577,-0.5 0.56,-0.5C0.546,-0.5 0.535,-0.501 0.526,-0.502C0.509,-0.505 0.486,-0.512 0.456,-0.523C0.442,-0.527 0.425,-0.529 0.403,-0.529C0.364,-0.529 0.331,-0.518 0.304,-0.495C0.276,-0.473 0.258,-0.441 0.249,-0.399C0.247,-0.389 0.246,-0.379 0.246,-0.367C0.246,-0.356 0.247,-0.345 0.249,-0.334C0.254,-0.306 0.263,-0.283 0.275,-0.264C0.288,-0.244 0.304,-0.23 0.323,-0.22C0.343,-0.211 0.365,-0.206 0.391,-0.206C0.423,-0.206 0.462,-0.214 0.506,-0.229C0.507,-0.229 0.508,-0.23 0.51,-0.23C0.513,-0.231 0.514,-0.232 0.516,-0.232C0.528,-0.235 0.54,-0.236 0.553,-0.236C0.585,-0.236 0.61,-0.226 0.629,-0.205C0.646,-0.186 0.654,-0.165 0.654,-0.142C0.654,-0.122 0.647,-0.101 0.633,-0.08C0.615,-0.053 0.583,-0.031 0.536,-0.013C0.503,0 0.462,0.007 0.415,0.007C0.391,0.007 0.366,0.005 0.34,0.001C0.271,-0.01 0.21,-0.037 0.159,-0.08C0.14,-0.096 0.121,-0.115 0.102,-0.138Z" style="fill:white;fill-rule:nonzero;"/>
            </g>
        </g>
        <g transform="matrix(415.731,-277.791,277.791,415.731,859.835,847.572)">
            <g>
                <path d="M0.087,-0.156C0.072,-0.177 0.06,-0.199 0.05,-0.222C0.04,-0.245 0.033,-0.269 0.028,-0.292C0.023,-0.316 0.02,-0.34 0.02,-0.364C0.02,-0.387 0.023,-0.411 0.028,-0.435C0.033,-0.458 0.04,-0.482 0.05,-0.506C0.06,-0.529 0.073,-0.551 0.087,-0.572C0.11,-0.606 0.139,-0.635 0.172,-0.66C0.205,-0.685 0.241,-0.704 0.281,-0.717C0.321,-0.73 0.361,-0.737 0.403,-0.737C0.434,-0.737 0.465,-0.733 0.495,-0.726C0.526,-0.718 0.555,-0.707 0.583,-0.693C0.611,-0.678 0.636,-0.661 0.659,-0.641C0.682,-0.62 0.702,-0.597 0.719,-0.572C0.764,-0.507 0.786,-0.438 0.786,-0.364C0.786,-0.327 0.78,-0.291 0.769,-0.256C0.758,-0.22 0.741,-0.187 0.719,-0.156C0.702,-0.131 0.681,-0.108 0.658,-0.087C0.634,-0.066 0.609,-0.048 0.583,-0.035C0.557,-0.021 0.528,-0.01 0.497,-0.002C0.465,0.006 0.434,0.01 0.403,0.01C0.361,0.01 0.321,0.003 0.281,-0.01C0.241,-0.023 0.205,-0.042 0.172,-0.067C0.138,-0.092 0.11,-0.122 0.087,-0.156ZM0.249,-0.364C0.249,-0.332 0.256,-0.302 0.27,-0.276C0.284,-0.25 0.302,-0.229 0.325,-0.215C0.349,-0.2 0.374,-0.193 0.402,-0.193C0.412,-0.193 0.422,-0.194 0.432,-0.196C0.451,-0.2 0.467,-0.207 0.482,-0.216C0.497,-0.226 0.511,-0.238 0.522,-0.253C0.534,-0.268 0.543,-0.285 0.549,-0.303C0.555,-0.322 0.558,-0.342 0.558,-0.363C0.558,-0.373 0.557,-0.384 0.555,-0.395C0.55,-0.423 0.541,-0.448 0.527,-0.468C0.512,-0.489 0.495,-0.505 0.473,-0.517C0.452,-0.528 0.428,-0.534 0.403,-0.534C0.375,-0.534 0.349,-0.527 0.325,-0.512C0.302,-0.498 0.283,-0.478 0.27,-0.451C0.256,-0.425 0.249,-0.396 0.249,-0.364Z" style="fill:white;fill-rule:nonzero;"/>
            </g>
        </g>
        <g transform="matrix(489.984,-99.575,99.575,489.984,1247.99,609.144)">
            <g>
                <path d="M0.144,0.009C0.112,0.008 0.085,-0.004 0.063,-0.027C0.04,-0.05 0.029,-0.077 0.029,-0.109L0.029,-0.605C0.029,-0.63 0.034,-0.652 0.043,-0.671C0.053,-0.689 0.066,-0.703 0.083,-0.713C0.101,-0.722 0.122,-0.727 0.146,-0.727L0.365,-0.727C0.411,-0.727 0.452,-0.72 0.487,-0.706C0.522,-0.692 0.551,-0.671 0.573,-0.644C0.596,-0.617 0.611,-0.585 0.62,-0.547C0.625,-0.523 0.628,-0.502 0.628,-0.484C0.628,-0.417 0.605,-0.364 0.56,-0.324L0.556,-0.32L0.519,-0.291L0.604,-0.178C0.621,-0.156 0.629,-0.132 0.629,-0.105C0.629,-0.087 0.625,-0.07 0.616,-0.053C0.608,-0.037 0.596,-0.023 0.58,-0.011C0.559,0.004 0.537,0.011 0.514,0.011C0.472,0.011 0.437,-0.011 0.408,-0.055L0.259,-0.277L0.259,-0.106C0.259,-0.084 0.254,-0.065 0.243,-0.048C0.233,-0.031 0.219,-0.017 0.202,-0.007C0.185,0.004 0.166,0.009 0.144,0.009ZM0.26,-0.438L0.356,-0.438C0.367,-0.438 0.377,-0.442 0.385,-0.451C0.393,-0.46 0.397,-0.472 0.397,-0.486C0.397,-0.497 0.393,-0.506 0.385,-0.514C0.378,-0.521 0.369,-0.525 0.36,-0.525L0.26,-0.525L0.26,-0.438Z" style="fill:white;fill-rule:nonzero;"/>
            </g>
        </g>
        <g transform="matrix(492.735,84.9235,-84.9235,492.735,1609.44,536.278)">
            <g>
                <path d="M0.087,-0.156C0.072,-0.177 0.06,-0.199 0.05,-0.222C0.04,-0.245 0.033,-0.269 0.028,-0.292C0.023,-0.316 0.02,-0.34 0.02,-0.364C0.02,-0.387 0.023,-0.411 0.028,-0.435C0.033,-0.458 0.04,-0.482 0.05,-0.506C0.06,-0.529 0.073,-0.551 0.087,-0.572C0.11,-0.606 0.139,-0.635 0.172,-0.66C0.205,-0.685 0.241,-0.704 0.281,-0.717C0.321,-0.73 0.361,-0.737 0.403,-0.737C0.434,-0.737 0.465,-0.733 0.495,-0.726C0.526,-0.718 0.555,-0.707 0.583,-0.693C0.611,-0.678 0.636,-0.661 0.659,-0.641C0.682,-0.62 0.702,-0.597 0.719,-0.572C0.764,-0.507 0.786,-0.438 0.786,-0.364C0.786,-0.327 0.78,-0.291 0.769,-0.256C0.758,-0.22 0.741,-0.187 0.719,-0.156C0.702,-0.131 0.681,-0.108 0.658,-0.087C0.634,-0.066 0.609,-0.048 0.583,-0.035C0.557,-0.021 0.528,-0.01 0.497,-0.002C0.465,0.006 0.434,0.01 0.403,0.01C0.361,0.01 0.321,0.003 0.281,-0.01C0.241,-0.023 0.205,-0.042 0.172,-0.067C0.138,-0.092 0.11,-0.122 0.087,-0.156ZM0.249,-0.364C0.249,-0.332 0.256,-0.302 0.27,-0.276C0.284,-0.25 0.302,-0.229 0.325,-0.215C0.349,-0.2 0.374,-0.193 0.402,-0.193C0.412,-0.193 0.422,-0.194 0.432,-0.196C0.451,-0.2 0.467,-0.207 0.482,-0.216C0.497,-0.226 0.511,-0.238 0.522,-0.253C0.534,-0.268 0.543,-0.285 0.549,-0.303C0.555,-0.322 0.558,-0.342 0.558,-0.363C0.558,-0.373 0.557,-0.384 0.555,-0.395C0.55,-0.423 0.541,-0.448 0.527,-0.468C0.512,-0.489 0.495,-0.505 0.473,-0.517C0.452,-0.528 0.428,-0.534 0.403,-0.534C0.375,-0.534 0.349,-0.527 0.325,-0.512C0.302,-0.498 0.283,-0.478 0.27,-0.451C0.256,-0.425 0.249,-0.396 0.249,-0.364Z" style="fill:white;fill-rule:nonzero;"/>
            </g>
        </g>
        <g transform="matrix(417.599,274.976,-274.976,417.599,2057.23,627.647)">
            <g>
                <path d="M0.064,-0.028C0.041,-0.056 0.029,-0.087 0.029,-0.12L0.029,-0.617C0.029,-0.642 0.035,-0.664 0.049,-0.684C0.062,-0.704 0.079,-0.718 0.101,-0.727C0.115,-0.733 0.129,-0.736 0.143,-0.736C0.178,-0.736 0.211,-0.718 0.242,-0.681L0.496,-0.38L0.496,-0.617C0.496,-0.649 0.508,-0.677 0.531,-0.7C0.554,-0.723 0.581,-0.734 0.612,-0.734C0.627,-0.734 0.642,-0.731 0.656,-0.725C0.671,-0.72 0.683,-0.711 0.693,-0.7C0.703,-0.69 0.712,-0.678 0.718,-0.663C0.724,-0.648 0.727,-0.633 0.727,-0.617L0.727,-0.108C0.727,-0.103 0.726,-0.095 0.725,-0.085C0.722,-0.067 0.715,-0.051 0.703,-0.037C0.692,-0.023 0.679,-0.012 0.663,-0.004C0.647,0.004 0.629,0.008 0.611,0.008C0.589,0.008 0.569,0.002 0.551,-0.009C0.538,-0.018 0.528,-0.026 0.522,-0.034L0.26,-0.356L0.26,-0.109C0.26,-0.075 0.249,-0.047 0.226,-0.025C0.204,-0.003 0.178,0.008 0.147,0.008C0.113,0.008 0.086,-0.004 0.064,-0.028Z" style="fill:white;fill-rule:nonzero;"/>
            </g>
        </g>
        <g transform="matrix(286.153,410.02,-410.02,286.153,2409.3,875.548)">
            <g>
                <path d="M0.054,0.001C0.032,-0.009 0.014,-0.022 0.002,-0.04C-0.01,-0.057 -0.016,-0.077 -0.016,-0.1C-0.016,-0.117 -0.012,-0.138 -0.003,-0.162L0.169,-0.606C0.185,-0.647 0.208,-0.678 0.239,-0.7C0.269,-0.722 0.304,-0.733 0.343,-0.733C0.382,-0.733 0.417,-0.722 0.448,-0.7C0.478,-0.678 0.501,-0.647 0.517,-0.606L0.689,-0.162C0.698,-0.136 0.702,-0.116 0.702,-0.1C0.702,-0.077 0.696,-0.057 0.684,-0.04C0.672,-0.022 0.654,-0.009 0.632,0.001C0.616,0.008 0.6,0.011 0.584,0.011C0.561,0.011 0.539,0.004 0.52,-0.011C0.5,-0.025 0.486,-0.046 0.476,-0.072L0.465,-0.105L0.222,-0.105L0.21,-0.072C0.201,-0.046 0.187,-0.026 0.167,-0.011C0.148,0.004 0.126,0.011 0.102,0.011C0.086,0.011 0.07,0.008 0.054,0.001ZM0.289,-0.306L0.397,-0.306L0.343,-0.5L0.289,-0.306Z" style="fill:white;fill-rule:nonzero;"/>
            </g>
        </g>
        <g transform="matrix(398.555,301.917,-301.917,398.555,646.774,2663.46)">
            <g>
                <path d="M0.053,-0.723C0.069,-0.73 0.086,-0.734 0.105,-0.734C0.129,-0.734 0.151,-0.727 0.17,-0.714C0.189,-0.701 0.203,-0.683 0.212,-0.66L0.329,-0.332L0.447,-0.66C0.456,-0.683 0.47,-0.701 0.489,-0.715C0.508,-0.728 0.53,-0.735 0.553,-0.735C0.57,-0.735 0.588,-0.731 0.605,-0.723C0.625,-0.713 0.642,-0.699 0.653,-0.68C0.665,-0.662 0.671,-0.642 0.671,-0.62C0.671,-0.605 0.668,-0.591 0.662,-0.577L0.438,-0.069C0.42,-0.028 0.397,-0.004 0.367,0.005C0.352,0.009 0.338,0.011 0.326,0.011C0.279,0.011 0.243,-0.015 0.22,-0.069L-0.004,-0.577C-0.01,-0.591 -0.013,-0.606 -0.013,-0.62C-0.013,-0.641 -0.007,-0.661 0.005,-0.68C0.017,-0.699 0.033,-0.713 0.053,-0.723Z" style="fill:white;fill-rule:nonzero;"/>
            </g>
        </g>
        <g transform="matrix(466.518,179.891,-179.891,466.518,1047.16,2924.53)">
            <g>
                <path d="M0.063,-0.025C0.04,-0.048 0.029,-0.076 0.029,-0.109L0.029,-0.618C0.029,-0.651 0.04,-0.678 0.063,-0.7C0.085,-0.723 0.113,-0.734 0.145,-0.734C0.166,-0.734 0.185,-0.729 0.202,-0.719C0.22,-0.708 0.234,-0.694 0.244,-0.676C0.255,-0.658 0.26,-0.639 0.26,-0.617L0.26,-0.107C0.26,-0.092 0.257,-0.077 0.251,-0.062C0.246,-0.048 0.237,-0.035 0.226,-0.024C0.203,-0.002 0.176,0.009 0.145,0.009C0.112,0.009 0.084,-0.002 0.063,-0.025Z" style="fill:white;fill-rule:nonzero;"/>
            </g>
        </g>
        <g transform="matrix(498.215,42.2122,-42.2122,498.215,1326.07,3022.98)">
            <g>
                <path d="M0.144,0.009C0.112,0.008 0.085,-0.004 0.063,-0.027C0.04,-0.05 0.029,-0.077 0.029,-0.109L0.029,-0.605C0.029,-0.63 0.034,-0.652 0.043,-0.671C0.053,-0.689 0.066,-0.703 0.083,-0.713C0.101,-0.722 0.122,-0.727 0.146,-0.727L0.365,-0.727C0.411,-0.727 0.452,-0.72 0.487,-0.706C0.522,-0.692 0.551,-0.671 0.573,-0.644C0.596,-0.617 0.611,-0.585 0.62,-0.547C0.625,-0.523 0.628,-0.502 0.628,-0.484C0.628,-0.417 0.605,-0.364 0.56,-0.324L0.556,-0.32L0.519,-0.291L0.604,-0.178C0.621,-0.156 0.629,-0.132 0.629,-0.105C0.629,-0.087 0.625,-0.07 0.616,-0.053C0.608,-0.037 0.596,-0.023 0.58,-0.011C0.559,0.004 0.537,0.011 0.514,0.011C0.472,0.011 0.437,-0.011 0.408,-0.055L0.259,-0.277L0.259,-0.106C0.259,-0.084 0.254,-0.065 0.243,-0.048C0.233,-0.031 0.219,-0.017 0.202,-0.007C0.185,0.004 0.166,0.009 0.144,0.009ZM0.26,-0.438L0.356,-0.438C0.367,-0.438 0.377,-0.442 0.385,-0.451C0.393,-0.46 0.397,-0.472 0.397,-0.486C0.397,-0.497 0.393,-0.506 0.385,-0.514C0.378,-0.521 0.369,-0.525 0.36,-0.525L0.26,-0.525L0.26,-0.438Z" style="fill:white;fill-rule:nonzero;"/>
            </g>
        </g>
        <g transform="matrix(480.519,-138.207,138.207,480.519,1800.47,3041.79)">
            <g>
                <path d="M0.321,0.003C0.273,-0.005 0.23,-0.018 0.194,-0.036C0.157,-0.055 0.127,-0.078 0.103,-0.106C0.078,-0.134 0.06,-0.166 0.048,-0.204C0.035,-0.241 0.029,-0.282 0.029,-0.326L0.029,-0.617C0.029,-0.65 0.04,-0.678 0.062,-0.701C0.085,-0.724 0.113,-0.736 0.145,-0.736C0.177,-0.736 0.203,-0.725 0.225,-0.703C0.248,-0.68 0.26,-0.652 0.26,-0.619L0.26,-0.319C0.26,-0.296 0.264,-0.276 0.271,-0.259C0.279,-0.241 0.291,-0.227 0.305,-0.216C0.32,-0.204 0.338,-0.197 0.36,-0.193C0.371,-0.192 0.379,-0.191 0.385,-0.191C0.39,-0.191 0.398,-0.192 0.409,-0.193C0.431,-0.197 0.449,-0.204 0.463,-0.215C0.478,-0.226 0.489,-0.241 0.497,-0.258C0.505,-0.276 0.509,-0.296 0.509,-0.319L0.509,-0.619C0.509,-0.652 0.521,-0.68 0.544,-0.703C0.566,-0.725 0.592,-0.736 0.624,-0.736C0.657,-0.736 0.684,-0.724 0.706,-0.701C0.716,-0.691 0.725,-0.678 0.731,-0.663C0.737,-0.648 0.74,-0.633 0.74,-0.617L0.74,-0.326C0.74,-0.281 0.734,-0.24 0.722,-0.203C0.709,-0.166 0.691,-0.134 0.666,-0.106C0.642,-0.078 0.611,-0.055 0.574,-0.036C0.538,-0.018 0.495,-0.005 0.447,0.003C0.43,0.006 0.409,0.008 0.384,0.008C0.359,0.008 0.338,0.006 0.321,0.003Z" style="fill:white;fill-rule:nonzero;"/>
            </g>
        </g>
        <g transform="matrix(400.513,-299.316,299.316,400.513,2303.97,2861.09)">
            <g>
                <path d="M0.079,-0.034C0.054,-0.05 0.036,-0.065 0.027,-0.081C0.018,-0.096 0.013,-0.115 0.013,-0.139C0.014,-0.161 0.02,-0.18 0.03,-0.195C0.049,-0.223 0.072,-0.237 0.101,-0.237C0.113,-0.237 0.125,-0.236 0.136,-0.233L0.18,-0.221L0.22,-0.211L0.249,-0.204L0.26,-0.201C0.267,-0.2 0.273,-0.199 0.277,-0.198C0.29,-0.196 0.302,-0.195 0.312,-0.195C0.322,-0.195 0.332,-0.196 0.34,-0.199C0.352,-0.203 0.36,-0.206 0.364,-0.21C0.37,-0.215 0.373,-0.221 0.373,-0.227C0.373,-0.234 0.37,-0.24 0.363,-0.244C0.361,-0.245 0.359,-0.246 0.355,-0.247L0.336,-0.254L0.323,-0.258L0.27,-0.271L0.26,-0.273L0.194,-0.292C0.158,-0.302 0.127,-0.314 0.102,-0.33C0.075,-0.348 0.054,-0.37 0.039,-0.398C0.024,-0.426 0.017,-0.456 0.017,-0.489C0.017,-0.515 0.022,-0.541 0.032,-0.567C0.042,-0.593 0.057,-0.617 0.076,-0.638C0.098,-0.662 0.126,-0.682 0.16,-0.699C0.194,-0.715 0.232,-0.726 0.275,-0.731C0.292,-0.733 0.309,-0.734 0.327,-0.734C0.364,-0.734 0.4,-0.729 0.434,-0.719C0.472,-0.708 0.5,-0.695 0.518,-0.681C0.537,-0.667 0.549,-0.649 0.555,-0.628C0.558,-0.615 0.56,-0.603 0.56,-0.593C0.56,-0.572 0.555,-0.554 0.544,-0.539C0.534,-0.525 0.523,-0.514 0.51,-0.507C0.498,-0.5 0.483,-0.497 0.466,-0.497C0.448,-0.497 0.427,-0.5 0.404,-0.507L0.396,-0.51L0.367,-0.519L0.313,-0.532L0.303,-0.534C0.301,-0.535 0.299,-0.535 0.298,-0.535L0.29,-0.535C0.271,-0.535 0.259,-0.532 0.252,-0.527C0.246,-0.522 0.243,-0.516 0.243,-0.51C0.243,-0.506 0.245,-0.502 0.249,-0.499C0.253,-0.496 0.258,-0.494 0.265,-0.492L0.291,-0.485L0.311,-0.48L0.344,-0.472L0.41,-0.453C0.445,-0.443 0.474,-0.432 0.497,-0.42C0.515,-0.411 0.531,-0.4 0.545,-0.387C0.559,-0.374 0.57,-0.36 0.58,-0.344C0.589,-0.328 0.597,-0.311 0.601,-0.294C0.606,-0.278 0.608,-0.26 0.608,-0.241C0.608,-0.188 0.589,-0.139 0.552,-0.095C0.494,-0.026 0.41,0.009 0.298,0.009C0.289,0.009 0.275,0.008 0.255,0.007C0.176,0.002 0.117,-0.011 0.079,-0.034Z" style="fill:white;fill-rule:nonzero;"/>
            </g>
        </g>
    </g>
</svg>
