<?xml version="1.0" encoding="UTF-8" standalone="no"?>
<!DOCTYPE svg PUBLIC "-//W3C//DTD SVG 1.1//EN" "http://www.w3.org/Graphics/SVG/1.1/DTD/svg11.dtd">
<svg width="100%" height="100%" viewBox="0 0 4000 4000" version="1.1" xmlns="http://www.w3.org/2000/svg" xmlns:xlink="http://www.w3.org/1999/xlink" xml:space="preserve" xmlns:serif="http://www.serif.com/" style="fill-rule:evenodd;clip-rule:evenodd;stroke-linejoin:round;stroke-miterlimit:2;">
    <g transform="matrix(1.35857,-0.567587,0.567831,1.35916,-1852.84,413.998)">
        <path d="M1354.9,1224.82C1506.78,1096.64 1697.28,1012.75 1906.33,993.183L1906.43,904.082C1906.43,904.082 1768.15,884.348 1767.76,790.596C1767.4,702.453 1861.66,678.314 1998.54,677.98C2135.41,677.646 2235.03,701.41 2233.77,790.986C2232.43,885.886 2091.15,905.277 2091.15,905.277L2091.37,992.831C2297.51,1011.34 2485.74,1092.36 2637,1216.8L2700.53,1153.41C2700.53,1153.41 2616.7,1041.67 2682.72,975.11C2744.8,912.527 2828.51,962.11 2925.54,1058.66C3022.56,1155.21 3076.19,1242.45 3011.96,1304.9C2943.91,1371.06 2830.3,1284.87 2830.3,1284.87L2768.52,1346.97C2895.91,1498.62 2979.23,1688.44 2998.72,1896.68L3097.56,1896.79C3097.56,1896.79 3117.3,1758.51 3211.05,1758.12C3299.19,1757.76 3323.33,1852.02 3323.66,1988.9C3324,2125.78 3300.23,2225.39 3210.66,2224.13C3115.76,2222.8 3096.37,2081.51 3096.37,2081.51L2999.07,2081.76C2980.29,2290.95 2897.12,2481.72 2769.56,2634.05L2844.74,2709.39C2844.74,2709.39 2956.48,2625.57 3023.04,2691.59C3085.62,2753.66 3036.04,2837.38 2939.49,2934.4C2842.94,3031.43 2755.7,3085.06 2693.25,3020.83C2627.09,2952.78 2713.28,2839.16 2713.28,2839.16L2638.21,2764.48C2487.69,2888.72 2300.4,2969.88 2095.23,2989.08L2095.12,3099.52C2095.12,3099.52 2233.39,3119.26 2233.78,3213.01C2234.14,3301.15 2139.88,3325.29 2003,3325.62C1866.13,3325.96 1766.52,3302.2 1767.77,3212.62C1769.11,3117.72 1910.39,3098.33 1910.39,3098.33L1910.11,2989.43C1701.75,2970.72 1511.66,2888.13 1359.59,2761.38L1271.14,2849.64C1271.14,2849.64 1354.97,2961.37 1288.95,3027.93C1226.87,3090.51 1143.15,3040.93 1046.13,2944.38C949.109,2847.83 895.476,2760.59 959.706,2698.14C1027.75,2631.98 1141.37,2718.17 1141.37,2718.17L1228.82,2630.27C1103.79,2479.45 1022.09,2291.52 1002.82,2085.59L900.985,2085.48C900.985,2085.48 881.251,2223.76 787.499,2224.14C699.356,2224.5 675.217,2130.24 674.883,1993.37C674.549,1856.49 698.312,1756.88 787.889,1758.13C882.789,1759.47 902.18,1900.76 902.18,1900.76L1002.47,1900.5C1020.91,1695.14 1101.39,1507.55 1225,1356.64L1158.32,1289.82C1158.32,1289.82 1046.59,1373.64 980.025,1307.62C917.443,1245.55 967.026,1161.83 1063.58,1064.8C1160.13,967.78 1247.37,914.148 1309.82,978.378C1375.98,1046.43 1289.78,1160.04 1289.78,1160.04L1354.9,1224.82Z" style="fill:rgb(128,195,65);"/>
    </g>
    <g transform="matrix(2.37311,0,0,2.37311,204.794,212.165)">
        <path d="M1102.25,1192.59C1102.25,1209.67 1084.17,1223.48 1061.87,1223.48C1061.87,1223.48 900.379,1255.44 750.769,1255.44C632.358,1255.44 441.123,1223.48 441.123,1223.48C418.848,1223.48 400.774,1209.67 400.774,1192.59L400.774,902.364C400.774,885.246 418.847,871.477 441.123,871.477C441.123,871.477 623.77,903.082 750.769,901.457C874.527,899.873 1061.87,871.477 1061.87,871.477C1084.17,871.477 1102.25,885.246 1102.25,902.364L1102.25,1192.59Z" style="fill:white;fill-rule:nonzero;"/>
        <path d="M451.286,939.711C450.667,941.71 448.454,942.803 446.345,942.15L140.582,848.203C138.472,847.55 137.263,845.398 137.881,843.399L133.772,809.4C134.391,807.4 136.604,806.308 138.714,806.962L457.648,905.619C459.758,906.272 460.967,908.423 460.349,910.423L451.286,939.711Z" style="fill:white;fill-rule:nonzero;"/>
        <g transform="matrix(1,0,0,1,15.3865,-1.59198)">
            <path d="M645.898,1121.02C646.529,1123.02 645.333,1125.17 643.227,1125.84L337.396,1224.96C335.29,1225.63 333.07,1224.55 332.44,1222.56L304.381,1196.59C303.75,1194.59 304.946,1192.43 307.052,1191.77L628.516,1090.17C630.622,1089.5 632.842,1090.58 633.473,1092.58L645.898,1121.02Z" style="fill:white;fill-rule:nonzero;"/>
        </g>
        <g transform="matrix(1,0,0,1,-2.06085,-0.309457)">
            <path d="M1054.15,939.711C1054.77,941.71 1056.98,942.803 1059.09,942.15L1371.01,846.578C1373.12,845.925 1373.23,844.263 1373.71,841.774L1377.98,807.833C1378.09,805.842 1378.23,803.952 1376.12,804.606L1047.79,905.619C1045.68,906.272 1044.47,908.423 1045.09,910.423L1054.15,939.711Z" style="fill:white;fill-rule:nonzero;"/>
        </g>
        <g transform="matrix(1,0,0,1,-6.11177,-1.34931)">
            <path d="M857.287,1121.81C856.656,1123.81 857.853,1125.97 859.959,1126.63L1163.51,1224.72C1165.62,1225.39 1167.83,1224.31 1168.46,1222.31L1195.62,1196.59C1196.25,1194.59 1195.05,1192.43 1192.95,1191.77L871.482,1090.17C869.377,1089.5 867.156,1090.58 866.525,1092.58L857.287,1121.81Z" style="fill:white;fill-rule:nonzero;"/>
        </g>
    </g>
    <g>
        <g transform="matrix(2.41193,0,0,2.41193,207.068,172.605)">
            <path d="M1051.61,844.698C892.948,844.698 763.857,715.62 763.857,556.879C763.857,398.235 892.907,269.072 1051.61,269.072C1210.28,269.072 1339.45,398.167 1339.45,556.879C1339.45,715.62 1210.28,844.698 1051.61,844.698Z" style="fill:white;fill-rule:nonzero;"/>
            <path d="M1053.77,405.891C1142.13,405.891 1213.75,477.503 1213.75,565.834C1213.75,654.217 1142.13,725.827 1053.77,725.827C965.397,725.827 893.762,654.217 893.762,565.834C893.762,477.503 965.396,405.891 1053.77,405.891Z" style="fill:rgb(35,31,32);fill-rule:nonzero;"/>
            <path d="M1013.11,473.724C1035.64,473.724 1053.92,491.936 1053.92,514.5C1053.92,536.979 1035.64,555.325 1013.11,555.325C990.597,555.325 972.321,536.979 972.321,514.5C972.321,491.937 990.598,473.724 1013.11,473.724Z" style="fill:white;fill-rule:nonzero;"/>
        </g>
        <g transform="matrix(1,0,0,1,0,63.7281)">
            <g transform="matrix(2.41193,0,0,2.41193,207.068,108.877)">
                <path d="M1051.61,844.698C892.948,844.698 763.857,715.62 763.857,556.879C763.857,398.235 892.907,269.072 1051.61,269.072C1210.28,269.072 1339.45,398.167 1339.45,556.879C1339.45,715.62 1210.28,844.698 1051.61,844.698Z" style="fill:white;fill-rule:nonzero;"/>
                <path d="M1053.77,405.891C1142.13,405.891 1213.75,477.503 1213.75,565.834C1213.75,654.217 1142.13,725.827 1053.77,725.827C965.397,725.827 893.762,654.217 893.762,565.834C893.762,477.503 965.396,405.891 1053.77,405.891Z" style="fill:rgb(35,31,32);fill-rule:nonzero;"/>
                <path d="M1013.11,473.724C1035.64,473.724 1053.92,491.936 1053.92,514.5C1053.92,536.979 1035.64,555.325 1013.11,555.325C990.597,555.325 972.321,536.979 972.321,514.5C972.321,491.937 990.598,473.724 1013.11,473.724Z" style="fill:white;fill-rule:nonzero;"/>
            </g>
            <g transform="matrix(0.927941,0,0,0.89408,1680.78,1400.55)">
                <path d="M1917.24,125.507C1917.24,539.443 1581.18,875.507 1167.24,875.507C753.304,875.507 417.241,539.443 417.241,125.507L1917.24,125.507Z" style="fill:rgb(44,123,65);"/>
            </g>
            <g transform="matrix(-0.849709,-3.31395e-16,2.57766e-16,-0.753542,3746.65,1357.97)">
                <path d="M1917.24,125.507C1917.24,539.443 1581.18,875.507 1167.24,875.507C753.304,875.507 417.241,539.443 417.241,125.507L1917.24,125.507Z" style="fill:rgb(44,123,65);"/>
            </g>
            <g transform="matrix(2.41193,0,0,2.41193,207.068,108.877)">
                <path d="M1056.18,291.427C1202.08,291.427 1320.41,409.697 1320.37,555.671C1320.37,701.585 1202.08,819.899 1056.18,819.899C910.179,819.899 791.93,701.55 791.93,555.671C791.952,409.696 910.144,291.427 1056.18,291.427M1056.18,244.354C884.501,244.354 744.868,383.988 744.868,555.631C744.868,727.304 884.524,866.966 1056.18,866.966C1227.83,866.966 1367.48,727.303 1367.48,555.671C1367.48,384.031 1227.83,244.354 1056.18,244.354Z" style="fill:rgb(77,160,65);fill-rule:nonzero;"/>
            </g>
        </g>
    </g>
    <g transform="matrix(1,0,0,1,-1509.92,0)">
        <g transform="matrix(2.41193,0,0,2.41193,207.068,172.605)">
            <path d="M1051.61,844.698C892.948,844.698 763.857,715.62 763.857,556.879C763.857,398.235 892.907,269.072 1051.61,269.072C1210.28,269.072 1339.45,398.167 1339.45,556.879C1339.45,715.62 1210.28,844.698 1051.61,844.698Z" style="fill:white;fill-rule:nonzero;"/>
            <path d="M1053.77,405.891C1142.13,405.891 1213.75,477.503 1213.75,565.834C1213.75,654.217 1142.13,725.827 1053.77,725.827C965.397,725.827 893.762,654.217 893.762,565.834C893.762,477.503 965.396,405.891 1053.77,405.891Z" style="fill:rgb(35,31,32);fill-rule:nonzero;"/>
            <path d="M1013.11,473.724C1035.64,473.724 1053.92,491.936 1053.92,514.5C1053.92,536.979 1035.64,555.325 1013.11,555.325C990.597,555.325 972.321,536.979 972.321,514.5C972.321,491.937 990.598,473.724 1013.11,473.724Z" style="fill:white;fill-rule:nonzero;"/>
        </g>
        <g transform="matrix(1,0,0,1,0,63.7281)">
            <g transform="matrix(2.41193,0,0,2.41193,207.068,108.877)">
                <path d="M1051.61,844.698C892.948,844.698 763.857,715.62 763.857,556.879C763.857,398.235 892.907,269.072 1051.61,269.072C1210.28,269.072 1339.45,398.167 1339.45,556.879C1339.45,715.62 1210.28,844.698 1051.61,844.698Z" style="fill:white;fill-rule:nonzero;"/>
                <path d="M1053.77,405.891C1142.13,405.891 1213.75,477.503 1213.75,565.834C1213.75,654.217 1142.13,725.827 1053.77,725.827C965.397,725.827 893.762,654.217 893.762,565.834C893.762,477.503 965.396,405.891 1053.77,405.891Z" style="fill:rgb(35,31,32);fill-rule:nonzero;"/>
                <path d="M1013.11,473.724C1035.64,473.724 1053.92,491.936 1053.92,514.5C1053.92,536.979 1035.64,555.325 1013.11,555.325C990.597,555.325 972.321,536.979 972.321,514.5C972.321,491.937 990.598,473.724 1013.11,473.724Z" style="fill:white;fill-rule:nonzero;"/>
            </g>
            <g transform="matrix(0.927941,0,0,0.89408,1680.78,1400.55)">
                <path d="M1917.24,125.507C1917.24,539.443 1581.18,875.507 1167.24,875.507C753.304,875.507 417.241,539.443 417.241,125.507L1917.24,125.507Z" style="fill:rgb(44,123,65);"/>
            </g>
            <g transform="matrix(-0.849709,-3.31395e-16,2.57766e-16,-0.753542,3746.65,1357.97)">
                <path d="M1917.24,125.507C1917.24,539.443 1581.18,875.507 1167.24,875.507C753.304,875.507 417.241,539.443 417.241,125.507L1917.24,125.507Z" style="fill:rgb(44,123,65);"/>
            </g>
            <g transform="matrix(2.41193,0,0,2.41193,207.068,108.877)">
                <path d="M1056.18,291.427C1202.08,291.427 1320.41,409.697 1320.37,555.671C1320.37,701.585 1202.08,819.899 1056.18,819.899C910.179,819.899 791.93,701.55 791.93,555.671C791.952,409.696 910.144,291.427 1056.18,291.427M1056.18,244.354C884.501,244.354 744.868,383.988 744.868,555.631C744.868,727.304 884.524,866.966 1056.18,866.966C1227.83,866.966 1367.48,727.303 1367.48,555.671C1367.48,384.031 1227.83,244.354 1056.18,244.354Z" style="fill:rgb(77,160,65);fill-rule:nonzero;"/>
            </g>
        </g>
    </g>
</svg>
