<?xml version="1.0" encoding="UTF-8"?>
<svg viewBox="0 0 951.125 576.74603" xmlns="http://www.w3.org/2000/svg" xmlns:xlink="http://www.w3.org/1999/xlink">
 <defs>
  <linearGradient id="a">
   <stop stop-color="#665449" offset="0"/>
   <stop stop-color="#dfb99f" stop-opacity="0" offset="1"/>
  </linearGradient>
  <linearGradient id="l" x1="317.67" x2="366.32" y1="449.32" y2="344.86" gradientUnits="userSpaceOnUse">
   <stop offset="0"/>
   <stop stop-opacity="0" offset="1"/>
  </linearGradient>
  <linearGradient id="k" x1="687.38" x2="741.76" y1="364.99" y2="421.51" gradientUnits="userSpaceOnUse">
   <stop stop-color="#65574e" offset="0"/>
   <stop stop-color="#efcfba" stop-opacity="0" offset="1"/>
  </linearGradient>
  <linearGradient id="i" x1="733.43" x2="763.4" y1="385.22" y2="421.04" gradientUnits="userSpaceOnUse">
   <stop stop-color="#665041" offset="0"/>
   <stop stop-color="#cfa285" stop-opacity="0" offset="1"/>
  </linearGradient>
  <linearGradient id="h" x1="727.34" x2="750.18" y1="403.87" y2="436.33" gradientUnits="userSpaceOnUse">
   <stop stop-color="#664b38" offset="0"/>
   <stop stop-color="#bf8c6a" stop-opacity="0" offset="1"/>
  </linearGradient>
  <linearGradient id="f" x1="756.15" x2="765.81" y1="444.74" y2="463.98" gradientUnits="userSpaceOnUse">
   <stop stop-color="#663d22" offset="0"/>
   <stop stop-color="#9f5f35" stop-opacity="0" offset="1"/>
  </linearGradient>
  <linearGradient id="e" x1="744.31" x2="769.41" y1="472.56" y2="510.87" gradientUnits="userSpaceOnUse">
   <stop stop-color="#663412" offset="0"/>
   <stop stop-color="#8f491a" stop-opacity="0" offset="1"/>
  </linearGradient>
  <linearGradient id="d" x1="774.22" x2="797.06" y1="489.23" y2="528.9" gradientUnits="userSpaceOnUse">
   <stop stop-color="#331400" offset="0"/>
   <stop stop-color="#803300" stop-opacity="0" offset="1"/>
  </linearGradient>
  <linearGradient id="c" x1="467.55" x2="601" y1="505.84" y2="419.36" gradientUnits="userSpaceOnUse">
   <stop stop-color="#894618" offset="0"/>
   <stop stop-color="#894618" stop-opacity="0" offset="1"/>
  </linearGradient>
  <linearGradient id="b" x1="158.12" x2="338.34" y1="337.75" y2="251.04" gradientUnits="userSpaceOnUse">
   <stop stop-color="#aa734d" offset="0"/>
   <stop stop-color="#aa734d" stop-opacity="0" offset="1"/>
  </linearGradient>
  <linearGradient id="j" x1="693.35" x2="741.76" y1="377.92" y2="443.8" gradientUnits="userSpaceOnUse" xlink:href="#a"/>
  <linearGradient id="g" x1="738.16" x2="797.06" y1="417.09" y2="494.04" gradientUnits="userSpaceOnUse" xlink:href="#a"/>
 </defs>
 <g transform="translate(-44.521 -90.449)">
  <path d="m379.45 201.35c-49.661 76.38-127.14 85.704-206.77 121.21-48.505 21.628-71.072 71.485-45.309 122.53 123.67 32.804 235.33 84.43 429.37 208.91 20.609 13.221 87.126-8.493 102.35-16.785 19.789-10.775 133.66-123.35 269.96-135.52 5.1795-0.46558-30.635-12.212-62.751-23.009 14.613-5.3168 29.715-9.4436 45.175-11.969 2.2722-0.37118-4.2468-4.8029-15.308-11.321 11.322-2.1484 22.982-3.5752 34.957-4.0554-7.1502-5.5724-14.472-10.713-21.911-15.518 6.9908-1.3783 14.048-2.5103 21.185-3.295-10.045-5.5905-34.011-12.531-61.758-19.376 17.167-11.794 35.449-24.086 55.599-37.09-9.3558 0.16628-29.299-1.8471-51.713-4.506 8.3929-8.9222 16.668-18.063 24.856-27.458-6.6834 0.11878-13.661 0.09448-20.908-0.08449 3.1564-3.5274 6.2849-7.0785 9.418-10.674-15.355 0.27291-32.279-0.24995-50.465-1.5771 7.1627-9.3007 14.192-18.739 21.135-28.303-15.474 1.6876-32.625 2.7388-51.135 3.0697 9.0402-13.494 18.081-27.079 27.407-40.695-124.53 17.086-245.87 38.787-453.39-64.492z" fill="#1e0b00" fill-opacity=".41011" fill-rule="evenodd"/>
  <path d="m523.8 568.56 67.911 58.938 108.01-40.423s-137.77-111.08-140.8-105.8-32.828 88.929-35.126 87.287z" fill="#5e2500" fill-rule="evenodd"/>
  <path d="m349.4 114.78c-51.187 84.754-135.88 95.1-221.78 134.5-52.326 23.999-74.919 79.323-44.375 135.97 137.28 36.401 262.2 93.687 480.81 231.81 23.218 14.67 95.325-9.4241 111.69-18.625 21.262-11.956 141.38-136.87 290.56-150.38 5.6687-0.51663-34.186-13.55-69.938-25.531 15.817-5.8997 32.224-10.479 49.094-13.281 2.4794-0.41186-4.876-5.3294-17.312-12.562 12.342-2.3839 25.086-3.9671 38.219-4.5-8.0989-6.1833-16.367-11.888-24.75-17.219 7.618-1.5294 15.32-2.7856 23.125-3.6562-11.28-6.2034-37.909-13.905-68.688-21.5 18.337-13.087 37.877-26.727 59.438-41.156-10.269 0.1845-32.263-2.0496-57-5 8.8261-9.9003 17.513-20.043 26.094-30.469-7.3358 0.1318-15.001 0.10485-22.969-0.09375 3.3118-3.9141 6.5918-7.8546 9.875-11.844-16.854 0.30283-35.466-0.27736-55.5-1.75 7.4582-10.32 14.764-20.794 21.969-31.406-16.922 1.8727-35.715 3.039-56.031 3.4062 9.3359-14.974 18.668-30.048 28.312-45.156-136.03 18.959-268.36 43.04-500.84-71.562z" fill="none" stroke="#000" stroke-width="12.5"/>
  <path d="m844.36 400.99c10.558-1.4105-225.04 25.424-279.63 52.549s-17.206 175.6 110.76 143.17c23.646-5.993 141.37-136.89 290.55-150.39 10.369-0.94506-132.24-43.92-121.68-45.33z" fill="#803300" fill-rule="evenodd"/>
  <path d="m844.36 400.99c10.558-1.4105-225.04 25.424-279.63 52.549s-17.206 175.6 110.76 143.17c23.646-5.993 141.37-136.89 290.55-150.39 10.369-0.94506-132.24-43.92-121.68-45.33z" fill="url(#d)" fill-rule="evenodd"/>
  <path d="m801.27 322.8c11.212-0.45493-211.54 95.491-265.65 119.47s30.138 194.7 150.18 133.05c21.613-11.1 125.61-145.6 259.4-167.83 10.536-1.7501-155.14-84.237-143.93-84.692z" fill="#8f491a" fill-rule="evenodd"/>
  <path d="m801.27 322.8c11.212-0.45493-211.54 95.491-265.65 119.47s30.138 194.7 150.18 133.05c21.613-11.1 125.61-145.6 259.4-167.83 10.536-1.7501-155.14-84.237-143.93-84.692z" fill="url(#e)" fill-rule="evenodd"/>
  <path d="m966.11 390.45c-72.949-55.695-158.11-74.759-243.14-94.208-74.332 90.313-46.571 100.83-177.94 159.04-54.108 23.976 40.957 172.16 145.26 100.5 21.602-14.843 122.22-159.1 275.81-165.33z" fill="#9f5f35" fill-rule="evenodd"/>
  <path d="m966.11 390.45c-72.949-55.695-158.11-74.759-243.14-94.208-74.332 90.313-46.571 100.83-177.94 159.04-54.108 23.976 40.957 172.16 145.26 100.5 21.602-14.843 122.22-159.1 275.81-165.33z" fill="url(#f)" fill-rule="evenodd"/>
  <path d="m655.8 500.04c-53.998 24.224-72.01 103.63 32.293 31.959 20.677-14.208 133.79-146.51 276.41-162.42-15.049-8.2766-57.476-19.205-100.54-29.014-182.46 147.18-176.29 126.86-208.17 159.48z" fill="#af764f" fill-rule="evenodd"/>
  <path d="m655.8 500.04c-53.998 24.224-72.01 103.63 32.293 31.959 20.677-14.208 133.79-146.51 276.41-162.42-15.049-8.2766-57.476-19.205-100.54-29.014-182.46 147.18-176.29 126.86-208.17 159.48z" fill="url(#g)" fill-rule="evenodd"/>
  <path d="m655.99 503.47c-44.587 22.743-48.274 54.575-38.919 57.686-62.192-9.7669-114.96-41.43-101.48-49.276 81.085-47.167 333.1-216.15 358.99-212.86 33.565 4.2653 67.175 8.1418 80.644 7.8998-114.79 76.826-171.88 131.59-299.24 196.56z" fill="#bf8c6a" fill-rule="evenodd"/>
  <path d="m655.99 503.47c-44.587 22.743-48.274 54.575-38.919 57.686-62.192-9.7669-114.96-41.43-101.48-49.276 81.085-47.167 333.1-216.15 358.99-212.86 33.565 4.2653 67.175 8.1418 80.644 7.8998-114.79 76.826-171.88 131.59-299.24 196.56z" fill="url(#h)" fill-rule="evenodd"/>
  <path d="m637.97 490.91c-26.041 11.743-50.155 48.109-27.518 80.92-62.552-12.107-52.136-73.773-34.12-86.185 82.088-56.556 289.8-216.04 300.24-215.39 17.108 1.0763 33.089 1.4644 47.761 1.2008-74.332 90.313-155.38 160.38-286.36 219.45z" fill="#cfa285" fill-rule="evenodd"/>
  <path d="m637.97 490.91c-26.041 11.743-50.155 48.109-27.518 80.92-62.552-12.107-52.136-73.773-34.12-86.185 82.088-56.556 289.8-216.04 300.24-215.39 17.108 1.0763 33.089 1.4644 47.761 1.2008-74.332 90.313-155.38 160.38-286.36 219.45z" fill="url(#i)" fill-rule="evenodd"/>
  <path d="m512.22 500.93c42.647-21.903 278.7-249.87 311.29-246.17s62.152 5.2203 87.739 4.7606c-74.332 90.313-154.99 161.24-286.36 219.45-34.886 15.458-49.367 76.663-23.082 101.68 14.484 13.783-132.23-57.813-89.586-79.716z" fill="#dfb99f" fill-rule="evenodd"/>
  <path d="m512.22 500.93c42.647-21.903 278.7-249.87 311.29-246.17s62.152 5.2203 87.739 4.7606c-74.332 90.313-154.99 161.24-286.36 219.45-34.886 15.458-49.367 76.663-23.082 101.68 14.484 13.783-132.23-57.813-89.586-79.716z" fill="url(#j)" fill-rule="evenodd"/>
  <path d="m478.11 514.39c35.617-9.027 279-285.36 311.79-284.68s62.369-0.52728 87.804-3.342c-65.696 96.777-139.48 181.98-266.35 245.03-39.393 19.576-55.168 93.055-12.802 120.25 16.34 10.489-156.06-68.232-120.44-77.259z" fill="#efcfba" fill-rule="evenodd"/>
  <path d="m478.11 514.39c35.617-9.027 279-285.36 311.79-284.68s62.369-0.52728 87.804-3.342c-65.696 96.777-139.48 181.98-266.35 245.03-39.393 19.576-55.168 93.055-12.802 120.25 16.34 10.489-156.06-68.232-120.44-77.259z" fill="url(#k)" fill-rule="evenodd"/>
  <path d="m349.15 113.05c232.49 114.6 364.81 90.507 500.83 71.548-62.934 98.595-112.5 196.69-237.54 263.29-53.797 28.658-109.37 190.29 63.238 149.32-40.853 21.539-98.771 26.539-111.89 18.104-217.6-139.9-343.52-195.41-480.8-231.81-30.544-56.646-7.9664-111.94 44.359-135.94 85.904-39.4 170.61-49.756 221.8-134.51z" fill="#ffe6d5" fill-rule="evenodd"/>
  <path transform="matrix(.70527 .21995 -1.0421 1.0929 0 0)" d="m640.12 31.056h15.351l19.315 38.629-0.55185-7.2242v-31.405h15.201v66.974h-15.602l-18.913-38.027 0.40135 8.3279v29.699h-15.201v-66.974zm85.637 68.63c-8.0938 0-14.264-3.102-18.512-9.3062s-6.3713-15.159-6.3713-26.865c-1e-5 -10.803 2.1321-19.223 6.3964-25.26s10.209-9.0552 17.835-9.0553c8.1272 7e-5 14.34 3.0269 18.637 9.0804s6.4465 14.699 6.4466 25.937-2.1155 19.958-6.3462 26.163-10.259 9.3061-18.086 9.3062zm-0.55185-55.285c-5.485 5e-5 -8.2276 6.4383-8.2275 19.315-2e-5 8.2944 0.69397 13.83 2.082 16.606s3.403 4.164 6.0452 4.1639c2.8428 1e-5 5.0251-1.388 6.5469-4.1639s2.2826-8.2108 2.2826-16.305c-3e-5 -13.077-2.9098-19.616-8.7292-19.616zm31.305-13.345h36.271v15.301h-10.485v51.673h-15.402v-51.673h-10.385v-15.301zm46.305 0h15.201v66.974h-15.201v-66.974zm65.319 51.171v15.903c-3.2108 1.0368-6.0871 1.5552-8.6289 1.5552-8.7961 0-15.928-3.3027-21.397-9.9082s-8.2024-15.293-8.2024-26.062c0-10 2.7592-18.253 8.2777-24.758s12.492-9.7576 20.92-9.7577c3.2776 7e-5 6.2877 0.43486 9.0302 1.3044v15.953c-2.9098-0.96986-5.6523-1.4548-8.2275-1.4549-3.9466 5e-5 -7.2242 1.8061-9.8329 5.4181s-3.9131 8.2108-3.9131 13.796c-2e-5 6.0202 1.3127 10.778 3.9382 14.273s6.1288 5.2426 10.51 5.2426c2.1405 1e-5 4.6488-0.50167 7.5252-1.505zm10.335-51.171h15.201v66.974h-15.201v-66.974zm77.008 66.974h-15.803l-2.5586-11.187h-16.054l-2.6589 11.187h-15.502l17.759-66.974h17.057l17.759 66.974zm-21.271-23.228c-2.2743-9.9667-3.98-19.448-5.1171-28.445h-0.20067c-1.2041 9.2644-2.893 18.746-5.067 28.445h10.385zm28.997 21.974v-15.602c4.8161 2.8094 8.863 4.2141 12.141 4.2141 1.9064 1e-5 3.4114-0.52675 4.5151-1.5803s1.6555-2.4498 1.6555-4.189c-2e-5 -1.3378-0.44317-2.592-1.3294-3.7626s-2.4164-2.592-4.5904-4.2643c-5.2509-4.0134-9.0553-7.7509-11.413-11.213s-3.5368-7.3161-3.5368-11.564c-1e-5 -5.786 1.8228-10.502 5.4683-14.147s8.3613-5.4682 14.147-5.4683c4.281 7e-5 8.5285 0.91981 12.743 2.7592v15c-4.5151-2.4749-8.1774-3.7124-10.987-3.7124-1.873 5e-5 -3.3529 0.45993-4.4399 1.3796s-1.6305 2.1824-1.6304 3.7877c-2e-5 2.8094 2.5251 5.97 7.5754 9.4817 3.01 2.0736 6.0619 4.9917 9.1556 8.7543s4.6405 8.1189 4.6405 13.069c-4e-5 5.786-2.0235 10.577-6.0703 14.373s-9.1808 5.6941-15.402 5.6941c-4.2476 0-8.4617-1.0034-12.642-3.0101z"/>
  <path d="m234.68 437.87s-32.912-72.978 91.581-121.63c34.341-2.2105 160.1 67.772 208.92 87.288 0 0-148.82 57.238-91.581 141.66-121.63-77.271-213.21-105.89-208.92-107.32z" fill="url(#l)" fill-rule="evenodd" stroke="#000"/>
  <path d="m336.27 304.79 273.31 98.736s40.067-10.017 50.083-24.326c-36.645-6.9419-303.32-97.763-279.04-101.6l-44.359 27.188z" fill-rule="evenodd" stroke="#000"/>
  <path d="m457.9 550.92s-67.255-64.393 93.012-141.66l50.083 15.74s-163.13 104.46-62.962 177.44c-51.514-34.343-80.133-51.514-80.133-51.514z" fill="url(#c)" fill-rule="evenodd"/>
  <path d="m347.72 269.02s-181.73 53.214-144.53 151.95c-50.083-14.31-103.03-32.643-103.03-32.643s-57.238-119.31 133.08-162.24l114.48 42.929z" fill="url(#b)" fill-rule="evenodd"/>
 </g>
</svg>
