<?xml version="1.0" encoding="UTF-8"?>
<svg viewBox="0 0 450.00003 435.21783" xmlns="http://www.w3.org/2000/svg">
 <g transform="matrix(.69861 0 0 .69861 501.69 145.23)">
  <path d="m-695.81-185.57h599.51v578.36h-599.51z" fill="#fff" stroke="#000" stroke-linecap="round" stroke-linejoin="round" stroke-width="44.62"/>
  <path d="m-552.5 76.422c0-96.6 89.6-175 200-175s200 78.4 200 175v1e-5s-14.51-15.412-33.26-15.412-47.332 15.412-54.24 15.412c-6.9406-1e-5 -23.648-16.082-56.25-16.082-31.932 0-51.352 16.082-56.25 16.082-4.9436 0-24.318-14.742-55.58-16.082-30.592-1.3401-51.352 16.752-56.92 16.082-4.9082-0.59066-35.49-16.752-54.24-16.752s-33.26 16.752-33.26 16.752z"/>
  <path d="m-353.38 68.74 0.67007 213.08" fill="none" stroke="#000" stroke-width="11.4"/>
  <path d="m-345.47 276.6h-13.618s1.7023 35.749-13.618 34.803-37.262-28.75-47.665-38.586-15.699 9.079-6.8092 23.454 44.828 31.776 65.823 31.776 15.888-51.448 15.888-51.448z" fill-rule="evenodd" stroke="#000" stroke-width="1.1291"/>
  <path d="m-608.56-10.5c3.8376 3.3813 8.3421 5.938 10.806 8.9707 2.4185 2.9768 2.5924 6.8635-0.06803 9.241-2.5984 2.3221-7.1289 1.1908-9.5258-1.1887s-5.038-7.9191-7.1235-11.377-10.497-17.492-9.7244-18.437c0.71613-0.87624 11.734 9.3539 15.636 12.791z"/>
  <path transform="matrix(.33571 -.28177 .5786 .68936 -823.63 189.76)" d="m145.61 158.72c0 12.103-9.0485 21.915-20.21 21.915s-20.21-9.8117-20.21-21.915 9.0485-21.915 20.21-21.915 20.21 9.8117 20.21 21.915z"/>
  <path d="m-567.46-42.799c3.8376 3.3813 8.3421 5.938 10.806 8.9707 2.4185 2.9768 2.5924 6.8635-0.06803 9.241-2.5984 2.3221-7.1289 1.1908-9.5258-1.1887s-5.038-7.9191-7.1235-11.377-10.497-17.492-9.7244-18.437c0.71613-0.87624 11.734 9.3539 15.636 12.791z"/>
  <path d="m-526.01-79.74c3.8376 3.3813 8.3421 5.938 10.806 8.9707 2.4185 2.9768 2.5924 6.8635-0.06803 9.241-2.5984 2.3221-7.1289 1.1908-9.5258-1.1887s-5.038-7.9191-7.1235-11.377-10.497-17.492-9.7244-18.437c0.71613-0.87624 11.734 9.3539 15.636 12.791z"/>
  <path d="m-618.81-59.918c3.8376 3.3813 8.3421 5.938 10.806 8.9707 2.4185 2.9768 2.5924 6.8635-0.06803 9.241-2.5984 2.3221-7.1289 1.1908-9.5258-1.1887s-5.038-7.9191-7.1235-11.377-10.497-17.492-9.7244-18.437c0.71613-0.87624 11.734 9.3539 15.636 12.791z"/>
  <path d="m-576.47-92.354c3.8376 3.3813 8.3421 5.938 10.806 8.9707 2.4185 2.9768 2.5924 6.8635-0.06803 9.241-2.5984 2.3221-7.1289 1.1908-9.5258-1.1887s-5.038-7.9191-7.1235-11.377-10.497-17.492-9.7244-18.437c0.71613-0.87624 11.734 9.3539 15.636 12.791z"/>
  <path d="m-633.23-113.98c3.8376 3.3813 8.3421 5.938 10.806 8.9707 2.4185 2.9768 2.5924 6.8635-0.06803 9.241-2.5984 2.3221-7.1289 1.1908-9.5258-1.1887s-5.038-7.9191-7.1235-11.377-10.497-17.492-9.7244-18.437c0.71613-0.87624 11.734 9.3539 15.636 12.791z"/>
  <path d="m-352.72 248.21a15.097 20.454 0 0 1 15.097 20.454 15.097 20.454 0 0 1 -15.097 20.454 15.097 20.454 0 0 1 -15.097 -20.454 15.097 20.454 0 0 1 15.097 -20.454"/>
 </g>
</svg>
